<svg width="122" height="122" viewBox="0 0 122 122" fill="none" xmlns="http://www.w3.org/2000/svg">
<g clip-path="url(#clip0_51680_4713)">
<rect width="122" height="122" rx="4" fill="white"/>
<rect width="134.4" height="134.4" transform="translate(-6.20001 -6.20001)" fill="#381E72" fill-opacity="0.12"/>
<path d="M87.5003 64.4953C87.643 63.354 87.75 62.2127 87.75 61C87.75 59.7873 87.643 58.646 87.5003 57.5047L95.026 51.6197C95.7037 51.0847 95.882 50.1217 95.454 49.337L88.3207 36.9963C87.8927 36.2117 86.9297 35.9263 86.145 36.2117L77.264 39.7783C75.4093 38.3517 73.412 37.1747 71.2363 36.283L69.881 26.8313C69.774 25.9753 69.025 25.3333 68.1333 25.3333H53.8666C52.975 25.3333 52.226 25.9753 52.119 26.8313L50.7636 36.283C48.588 37.1747 46.5906 38.3873 44.736 39.7783L35.855 36.2117C35.0346 35.8907 34.1073 36.2117 33.6793 36.9963L26.546 49.337C26.0823 50.1217 26.2963 51.0847 26.974 51.6197L34.4996 57.5047C34.357 58.646 34.25 59.823 34.25 61C34.25 62.177 34.357 63.354 34.4996 64.4953L26.974 70.3803C26.2963 70.9153 26.118 71.8783 26.546 72.663L33.6793 85.0037C34.1073 85.7883 35.0703 86.0737 35.855 85.7884L44.736 82.2217C46.5906 83.6484 48.588 84.8254 50.7636 85.717L52.119 95.1687C52.226 96.0247 52.975 96.6667 53.8666 96.6667H68.1333C69.025 96.6667 69.774 96.0247 69.881 95.1687L71.2363 85.717C73.412 84.8254 75.4093 83.6127 77.264 82.2217L86.145 85.7884C86.9653 86.1094 87.8927 85.7883 88.3207 85.0037L95.454 72.663C95.882 71.8783 95.7037 70.9153 95.026 70.3803L87.5003 64.4953ZM61 73.4833C54.1163 73.4833 48.5166 67.8837 48.5166 61C48.5166 54.1163 54.1163 48.5167 61 48.5167C67.8837 48.5167 73.4833 54.1163 73.4833 61C73.4833 67.8837 67.8837 73.4833 61 73.4833Z" fill="#381E72"/>
</g>
<defs>
<clipPath id="clip0_51680_4713">
<rect width="122" height="122" rx="4" fill="white"/>
</clipPath>
</defs>
</svg>
